<svg width="68" height="64" viewBox="0 0 68 64" fill="none" xmlns="http://www.w3.org/2000/svg">
<path d="M34 64C22.5 64 12 58 6.25 48C0.5 38.125 0.5 26 6.25 16C12 6.125 22.5 0 34 0C45.375 0 55.875 6.125 61.625 16C67.375 26 67.375 38.125 61.625 48C55.875 58 45.375 64 34 64ZM23.875 21.875C22.625 23.125 22.625 25 23.875 26.125L29.75 32L23.875 37.875C22.625 39.125 22.625 41 23.875 42.125C25 43.375 26.875 43.375 28 42.125L33.875 36.25L39.75 42.125C41 43.375 42.875 43.375 44 42.125C45.25 41 45.25 39.125 44 37.875L38.125 32L44 26.125C45.25 25 45.25 23.125 44 21.875C42.875 20.75 41 20.75 39.75 21.875L33.875 27.75L28 21.875C26.875 20.75 25 20.75 23.875 21.875Z" fill="#EB7D7A"/>
</svg>
