<svg width="68" height="64" viewBox="0 0 68 64" fill="none" xmlns="http://www.w3.org/2000/svg">
<path d="M34 64C22.5 64 12 58 6.25 48C0.5 38.125 0.5 26 6.25 16C12 6.125 22.5 0 34 0C45.375 0 55.875 6.125 61.625 16C67.375 26 67.375 38.125 61.625 48C55.875 58 45.375 64 34 64ZM29 42C27.25 42 26 43.375 26 45C26 46.75 27.25 48 29 48H39C40.625 48 42 46.75 42 45C42 43.375 40.625 42 39 42H38V31C38 29.375 36.625 28 35 28H29C27.25 28 26 29.375 26 31C26 32.75 27.25 34 29 34H32V42H29ZM34 16C31.75 16 30 17.875 30 20C30 22.25 31.75 24 34 24C36.125 24 38 22.25 38 20C38 17.875 36.125 16 34 16Z" fill="#BFBFBF"/>
</svg>
