<svg width="68" height="64" viewBox="0 0 68 64" fill="none" xmlns="http://www.w3.org/2000/svg">
<path d="M34 64C22.5 64 12 58 6.25 48C0.5 38.125 0.5 26 6.25 16C12 6.125 22.5 0 34 0C45.375 0 55.875 6.125 61.625 16C67.375 26 67.375 38.125 61.625 48C55.875 58 45.375 64 34 64ZM48.125 26.125H48C49.25 25 49.25 23.125 48 21.875C46.875 20.75 45 20.75 43.875 21.875L30 35.875L24.125 30C22.875 28.75 21 28.75 19.875 30C18.625 31.125 18.625 33 19.875 34.125L27.875 42.125C29 43.375 30.875 43.375 32.125 42.125L48.125 26.125Z" fill="#69D1CB"/>
</svg>
