<svg width="68" height="64" viewBox="0 0 68 64" fill="none" xmlns="http://www.w3.org/2000/svg">
<path d="M34 64C22.5 64 12 58 6.25 48C0.5 38.125 0.5 26 6.25 16C12 6.125 22.5 0 34 0C45.375 0 55.875 6.125 61.625 16C67.375 26 67.375 38.125 61.625 48C55.875 58 45.375 64 34 64ZM34 16C32.25 16 31 17.375 31 19V33C31 34.75 32.25 36 34 36C35.625 36 37 34.75 37 33V19C37 17.375 35.625 16 34 16ZM30 44C30 46.25 31.75 48 34 48C36.125 48 38 46.25 38 44C38 41.875 36.125 40 34 40C31.75 40 30 41.875 30 44Z" fill="#F7D27E"/>
</svg>
